<svg width="60" height="60" viewBox="0 0 60 60" fill="none" xmlns="http://www.w3.org/2000/svg">
<g clip-path="url(#clip0_19_75)">
<path d="M37.5 27.5V12.5L30 5L22.5 12.5V17.5H7.5V52.5H52.5V27.5H37.5ZM17.5 47.5H12.5V42.5H17.5V47.5ZM17.5 37.5H12.5V32.5H17.5V37.5ZM17.5 27.5H12.5V22.5H17.5V27.5ZM32.5 47.5H27.5V42.5H32.5V47.5ZM32.5 37.5H27.5V32.5H32.5V37.5ZM32.5 27.5H27.5V22.5H32.5V27.5ZM32.5 17.5H27.5V12.5H32.5V17.5ZM47.5 47.5H42.5V42.5H47.5V47.5ZM47.5 37.5H42.5V32.5H47.5V37.5Z" fill="black"/>
</g>
<defs>
<clipPath id="clip0_19_75">
<rect width="60" height="60" fill="white"/>
</clipPath>
</defs>
</svg>
